<svg width="75" height="80" viewBox="0 0 75 80" fill="none" xmlns="http://www.w3.org/2000/svg">
<path d="M58.75 31.9983C58.7496 30.2837 58.1829 28.7065 56.9938 27.4381C55.7967 26.1612 54.2433 25.4964 52.4968 25.5C50.7519 25.5008 49.1993 26.1655 48.0024 27.4422L49.8262 29.152L48.0024 27.4422C46.8134 28.7104 46.247 30.2872 46.25 32.0018M58.75 31.9983C58.753 33.7128 58.1865 35.2896 56.9976 36.5579C55.8007 37.8345 54.2481 38.4992 52.5031 38.5C50.7567 38.5036 49.2033 37.8388 48.0062 36.5619C46.8171 35.2935 46.2504 33.7163 46.25 32.0018M58.75 31.9983C58.75 31.9988 58.75 31.9994 58.75 32H56.25L58.75 31.9945C58.75 31.9957 58.75 31.997 58.75 31.9983ZM46.25 32.0018C46.25 32.0012 46.25 32.0006 46.25 32H48.7496L46.25 32.0055C46.25 32.0043 46.25 32.003 46.25 32.0018ZM22.5031 38.5C24.2481 38.4992 25.8007 37.8345 26.9976 36.5579L25.1737 34.848L26.9976 36.5579C28.1868 35.2893 28.7532 33.712 28.75 31.997C28.7493 30.2829 28.1826 28.7062 26.9938 27.4382C25.7967 26.1612 24.2433 25.4964 22.4969 25.5M22.5031 38.5C20.7567 38.5036 19.2033 37.8388 18.0062 36.5619C16.8174 35.2938 16.2507 33.7171 16.25 32.003M22.5031 38.5C22.5021 38.5 22.501 38.5 22.5 38.5V36L22.5031 38.5ZM16.25 32.003C16.2468 30.288 16.8132 28.7107 18.0024 27.4422C19.1993 26.1655 20.7519 25.5008 22.4969 25.5M16.25 32.003C16.25 32.002 16.25 32.001 16.25 32H18.7496L16.25 32.0055C16.25 32.0047 16.25 32.0039 16.25 32.003ZM22.4969 25.5C22.4979 25.5 22.4989 25.5 22.5 25.5V28L22.4937 25.5C22.4948 25.5 22.4958 25.5 22.4969 25.5ZM43.75 31.9982C43.753 33.7128 43.1865 35.2896 41.9976 36.5579C40.8007 37.8345 39.2481 38.4992 37.5031 38.5C35.7567 38.5036 34.2033 37.8388 33.0062 36.5619C31.8174 35.2938 31.2507 33.7171 31.25 32.003M43.75 31.9982C43.75 31.9988 43.75 31.9994 43.75 32H41.25L43.75 31.9945C43.75 31.9957 43.75 31.997 43.75 31.9982ZM43.75 31.9982C43.7496 30.2837 43.1829 28.7065 41.9938 27.4382L40.17 29.148L41.9938 27.4381C40.7967 26.1612 39.2433 25.4964 37.4968 25.5M37.4968 25.5C37.4979 25.5 37.4989 25.5 37.5 25.5V28L37.4937 25.5C37.4948 25.5 37.4958 25.5 37.4968 25.5ZM37.4968 25.5C35.7519 25.5008 34.1993 26.1655 33.0024 27.4422C31.8132 28.7107 31.2468 30.288 31.25 32.003M31.25 32.003C31.25 32.002 31.25 32.001 31.25 32H33.7496L31.25 32.0055C31.25 32.0047 31.25 32.0039 31.25 32.003ZM7.49676 2.50001H7.5H67.5C68.8394 2.50001 69.9551 2.97408 70.9749 4.06186C71.9992 5.15439 72.5018 6.42018 72.5 7.99716V8.00001V56C72.5 57.5815 71.9955 58.8495 70.9712 59.9421C69.9514 61.0299 68.838 61.5017 67.5032 61.5H67.5H15H13.9169L13.1762 62.2901L2.5 73.678V8.00001C2.5 6.41854 3.00448 5.15051 4.02884 4.05786C5.04858 2.97014 6.16201 2.49828 7.49676 2.50001Z" fill="white" stroke="black" stroke-width="5"/>
</svg>
