<svg width="38" height="38" viewBox="0 0 38 38" fill="none" xmlns="http://www.w3.org/2000/svg">
<path d="M18.75 0C29.1057 0 37.5 8.39438 37.5 18.75C37.5 29.1056 29.1057 37.5 18.75 37.5C15.4365 37.5054 12.1813 36.6284 9.31878 34.9594L0.00752638 37.5L2.54253 28.185C0.872076 25.3216 -0.00550946 22.065 2.60255e-05 18.75C2.60255e-05 8.39438 8.3944 0 18.75 0ZM12.36 9.9375L11.985 9.9525C11.7423 9.96729 11.505 10.0311 11.2875 10.14C11.0841 10.2552 10.8985 10.3992 10.7363 10.5675C10.5113 10.7794 10.3838 10.9631 10.2469 11.1413C9.55338 12.0429 9.17998 13.15 9.18565 14.2875C9.1894 15.2063 9.4294 16.1006 9.8044 16.9369C10.5713 18.6281 11.8332 20.4188 13.4982 22.0781C13.8994 22.4775 14.2932 22.8788 14.7169 23.2519C16.7858 25.0734 19.2511 26.387 21.9169 27.0881L22.9819 27.2513C23.3288 27.27 23.6757 27.2438 24.0244 27.2269C24.5705 27.1987 25.1037 27.0508 25.5863 26.7938C25.8318 26.6673 26.0714 26.5296 26.3044 26.3813C26.3044 26.3813 26.385 26.3288 26.5388 26.2125C26.7919 26.025 26.9475 25.8919 27.1575 25.6725C27.3132 25.5113 27.4482 25.3219 27.5513 25.1063C27.6975 24.8006 27.8438 24.2175 27.9038 23.7319C27.9488 23.3606 27.9357 23.1581 27.93 23.0325C27.9225 22.8319 27.7557 22.6238 27.5738 22.5356L26.4825 22.0463C26.4825 22.0463 24.8513 21.3356 23.8538 20.8819C23.7494 20.8363 23.6376 20.8102 23.5238 20.805C23.3955 20.7918 23.2659 20.8063 23.1436 20.8473C23.0214 20.8884 22.9093 20.9552 22.815 21.0431C22.8057 21.0394 22.68 21.1463 21.3244 22.7888C21.2466 22.8933 21.1394 22.9723 21.0165 23.0157C20.8936 23.0591 20.7606 23.065 20.6344 23.0325C20.5123 22.9997 20.3926 22.9584 20.2763 22.9088C20.0438 22.8113 19.9632 22.7738 19.8038 22.7063C18.7277 22.2366 17.7313 21.6022 16.8507 20.8256C16.6144 20.6194 16.395 20.3944 16.17 20.1769C15.4324 19.4704 14.7895 18.6713 14.2575 17.7994L14.1469 17.6213C14.0674 17.5016 14.0032 17.3724 13.9557 17.2369C13.8844 16.9613 14.07 16.74 14.07 16.74C14.07 16.74 14.5257 16.2413 14.7375 15.9713C14.9438 15.7088 15.1182 15.4538 15.2307 15.2719C15.4519 14.9156 15.5213 14.55 15.405 14.2669C14.88 12.9844 14.3363 11.7075 13.7775 10.44C13.6669 10.1888 13.3388 10.0087 13.0407 9.97313C12.9394 9.96187 12.8382 9.95063 12.7369 9.94313C12.4851 9.93062 12.2328 9.93312 11.9813 9.95063L12.3582 9.93563L12.36 9.9375Z" fill="#545454"/>
</svg>
