<svg width="690" height="131" viewBox="0 0 690 131" fill="none" xmlns="http://www.w3.org/2000/svg">
<rect x="190" y="45" width="500" height="40" rx="8" fill="#6D6464"/>
<path d="M273.244 69.5781H274.26V75.1152H272.316V72H264.904V75.1152H262.961V69.5781H263.938C264.322 68.5755 264.618 67.3646 264.826 65.9453C265.035 64.526 265.139 62.4102 265.139 59.5977V57.6836H273.244V69.5781ZM270.881 60.0957H267.385C267.385 64.321 267.062 67.4818 266.418 69.5781H270.881V60.0957ZM275.334 66.668C275.334 65.6523 275.536 64.7279 275.939 63.8945C276.343 63.0612 276.87 62.4362 277.521 62.0195C278.173 61.6029 278.905 61.3945 279.719 61.3945C281.086 61.3945 282.16 61.9316 282.941 63.0059C283.723 64.0736 284.113 65.3236 284.113 66.7559C284.113 67.8236 283.908 68.7871 283.498 69.6465C283.094 70.5059 282.561 71.1536 281.896 71.5898C281.239 72.0195 280.516 72.2344 279.729 72.2344C278.465 72.2344 277.417 71.7526 276.584 70.7891C275.751 69.8255 275.334 68.4518 275.334 66.668ZM277.639 66.8145C277.639 67.8626 277.844 68.6569 278.254 69.1973C278.664 69.7311 279.159 69.998 279.738 69.998C280.305 69.998 280.79 69.7279 281.193 69.1875C281.597 68.6471 281.799 67.8496 281.799 66.7949C281.799 65.7663 281.594 64.9818 281.184 64.4414C280.773 63.901 280.282 63.6309 279.709 63.6309C279.143 63.6309 278.654 63.901 278.244 64.4414C277.84 64.9818 277.639 65.7728 277.639 66.8145ZM290.559 57.7422H291.623C291.968 57.7422 292.18 57.6152 292.258 57.3613H293.801C293.781 58.123 293.635 58.6895 293.361 59.0605C293.094 59.4316 292.808 59.653 292.502 59.7246C292.196 59.7897 291.564 59.8353 290.607 59.8613C289.657 59.8874 289.045 59.946 288.771 60.0371C288.505 60.1283 288.215 60.3203 287.902 60.6133C287.596 60.9062 287.368 61.3099 287.219 61.8242C287.076 62.3385 286.994 63.0449 286.975 63.9434C287.697 62.4199 288.752 61.6582 290.139 61.6582C291.226 61.6582 292.163 62.179 292.951 63.2207C293.745 64.2624 294.143 65.5026 294.143 66.9414C294.143 68.4388 293.723 69.6953 292.883 70.7109C292.043 71.7201 290.988 72.2246 289.719 72.2246C288.736 72.2246 287.886 71.9121 287.17 71.2871C286.46 70.6621 285.995 69.8581 285.773 68.875C285.552 67.8919 285.441 66.515 285.441 64.7441C285.441 62.2441 285.812 60.4538 286.555 59.373C287.303 58.2858 288.638 57.7422 290.559 57.7422ZM289.758 63.8359C289.191 63.8359 288.716 64.1159 288.332 64.6758C287.948 65.2357 287.756 65.9779 287.756 66.9023C287.756 67.8333 287.941 68.5788 288.312 69.1387C288.69 69.6986 289.165 69.9785 289.738 69.9785C290.324 69.9785 290.816 69.6921 291.213 69.1191C291.617 68.5397 291.818 67.8008 291.818 66.9023C291.818 66.0039 291.617 65.2682 291.213 64.6953C290.816 64.1224 290.331 63.8359 289.758 63.8359ZM295.949 61.6289H298.049V63.1523C298.335 62.6055 298.713 62.1758 299.182 61.8633C299.65 61.5508 300.155 61.3945 300.695 61.3945C301.665 61.3945 302.499 61.8568 303.195 62.7812C303.898 63.7057 304.25 65.0176 304.25 66.7168C304.25 68.5007 303.898 69.8678 303.195 70.8184C302.492 71.7624 301.656 72.2344 300.686 72.2344C300.236 72.2344 299.816 72.127 299.426 71.9121C299.042 71.6908 298.635 71.2936 298.205 70.7207V75.9453H295.949V61.6289ZM298.176 66.6387C298.176 67.8105 298.365 68.6732 298.742 69.2266C299.126 69.7799 299.589 70.0566 300.129 70.0566C300.643 70.0566 301.076 69.8027 301.428 69.2949C301.779 68.7806 301.955 67.944 301.955 66.7852C301.955 65.6849 301.773 64.8743 301.408 64.3535C301.05 63.8262 300.611 63.5625 300.09 63.5625C299.543 63.5625 299.087 63.8197 298.723 64.334C298.358 64.8418 298.176 65.61 298.176 66.6387ZM305.51 66.668C305.51 65.6523 305.712 64.7279 306.115 63.8945C306.519 63.0612 307.046 62.4362 307.697 62.0195C308.348 61.6029 309.081 61.3945 309.895 61.3945C311.262 61.3945 312.336 61.9316 313.117 63.0059C313.898 64.0736 314.289 65.3236 314.289 66.7559C314.289 67.8236 314.084 68.7871 313.674 69.6465C313.27 70.5059 312.736 71.1536 312.072 71.5898C311.415 72.0195 310.692 72.2344 309.904 72.2344C308.641 72.2344 307.593 71.7526 306.76 70.7891C305.926 69.8255 305.51 68.4518 305.51 66.668ZM307.814 66.8145C307.814 67.8626 308.02 68.6569 308.43 69.1973C308.84 69.7311 309.335 69.998 309.914 69.998C310.48 69.998 310.965 69.7279 311.369 69.1875C311.773 68.6471 311.975 67.8496 311.975 66.7949C311.975 65.7663 311.77 64.9818 311.359 64.4414C310.949 63.901 310.458 63.6309 309.885 63.6309C309.318 63.6309 308.83 63.901 308.42 64.4414C308.016 64.9818 307.814 65.7728 307.814 66.8145ZM315.979 72V61.6387H321.711V63.7969H318.234V72H315.979ZM322.365 66.668C322.365 65.6523 322.567 64.7279 322.971 63.8945C323.374 63.0612 323.902 62.4362 324.553 62.0195C325.204 61.6029 325.936 61.3945 326.75 61.3945C328.117 61.3945 329.191 61.9316 329.973 63.0059C330.754 64.0736 331.145 65.3236 331.145 66.7559C331.145 67.8236 330.939 68.7871 330.529 69.6465C330.126 70.5059 329.592 71.1536 328.928 71.5898C328.27 72.0195 327.548 72.2344 326.76 72.2344C325.497 72.2344 324.449 71.7526 323.615 70.7891C322.782 69.8255 322.365 68.4518 322.365 66.668ZM324.67 66.8145C324.67 67.8626 324.875 68.6569 325.285 69.1973C325.695 69.7311 326.19 69.998 326.77 69.998C327.336 69.998 327.821 69.7279 328.225 69.1875C328.628 68.6471 328.83 67.8496 328.83 66.7949C328.83 65.7663 328.625 64.9818 328.215 64.4414C327.805 63.901 327.313 63.6309 326.74 63.6309C326.174 63.6309 325.686 63.901 325.275 64.4414C324.872 64.9818 324.67 65.7728 324.67 66.8145ZM343.039 72H337.502V61.6387H342.58C344.475 61.6387 345.422 62.5404 345.422 64.3438C345.422 65.5547 344.947 66.3392 343.996 66.6973C345.148 67.0944 345.725 67.9538 345.725 69.2754C345.725 70.0892 345.477 70.7467 344.982 71.248C344.494 71.7493 343.846 72 343.039 72ZM339.758 63.377V65.916H341.418C342.622 65.916 343.225 65.4766 343.225 64.5977C343.225 63.7839 342.622 63.377 341.418 63.377H339.758ZM339.758 67.5957V70.2617H341.721C342.84 70.2617 343.4 69.8223 343.4 68.9434C343.4 68.5072 343.26 68.1751 342.98 67.9473C342.701 67.7129 342.082 67.5957 341.125 67.5957H339.758ZM347.492 61.6289H349.592V63.1523C349.878 62.6055 350.256 62.1758 350.725 61.8633C351.193 61.5508 351.698 61.3945 352.238 61.3945C353.208 61.3945 354.042 61.8568 354.738 62.7812C355.441 63.7057 355.793 65.0176 355.793 66.7168C355.793 68.5007 355.441 69.8678 354.738 70.8184C354.035 71.7624 353.199 72.2344 352.229 72.2344C351.779 72.2344 351.359 72.127 350.969 71.9121C350.585 71.6908 350.178 71.2936 349.748 70.7207V75.9453H347.492V61.6289ZM349.719 66.6387C349.719 67.8105 349.908 68.6732 350.285 69.2266C350.669 69.7799 351.132 70.0566 351.672 70.0566C352.186 70.0566 352.619 69.8027 352.971 69.2949C353.322 68.7806 353.498 67.944 353.498 66.7852C353.498 65.6849 353.316 64.8743 352.951 64.3535C352.593 63.8262 352.154 63.5625 351.633 63.5625C351.086 63.5625 350.63 63.8197 350.266 64.334C349.901 64.8418 349.719 65.61 349.719 66.6387ZM362.512 68.6992L364.748 69.1582C364.449 70.1999 363.983 70.9746 363.352 71.4824C362.72 71.9837 361.952 72.2344 361.047 72.2344C359.79 72.2344 358.82 71.8145 358.137 70.9746C357.329 69.998 356.926 68.6309 356.926 66.873C356.926 65.1413 357.333 63.7546 358.146 62.7129C358.837 61.834 359.729 61.3945 360.822 61.3945C362.04 61.3945 362.993 61.8438 363.684 62.7422C364.478 63.7708 364.875 65.2878 364.875 67.293L364.865 67.6055H359.23C359.243 68.4258 359.426 69.0605 359.777 69.5098C360.135 69.959 360.565 70.1836 361.066 70.1836C361.789 70.1836 362.271 69.6888 362.512 68.6992ZM362.639 65.9258C362.619 65.1185 362.447 64.513 362.121 64.1094C361.796 63.6992 361.408 63.4941 360.959 63.4941C360.484 63.4941 360.083 63.7057 359.758 64.1289C359.426 64.5586 359.263 65.1576 359.27 65.9258H362.639ZM366.76 72V61.6387H369.562L371.662 68.8555L373.801 61.6387H376.584V72H374.641V65.1836L372.58 72H370.656L368.703 65.1836V72H366.76ZM383.781 68.6992L386.018 69.1582C385.718 70.1999 385.253 70.9746 384.621 71.4824C383.99 71.9837 383.221 72.2344 382.316 72.2344C381.06 72.2344 380.09 71.8145 379.406 70.9746C378.599 69.998 378.195 68.6309 378.195 66.873C378.195 65.1413 378.602 63.7546 379.416 62.7129C380.106 61.834 380.998 61.3945 382.092 61.3945C383.309 61.3945 384.263 61.8438 384.953 62.7422C385.747 63.7708 386.145 65.2878 386.145 67.293L386.135 67.6055H380.5C380.513 68.4258 380.695 69.0605 381.047 69.5098C381.405 69.959 381.835 70.1836 382.336 70.1836C383.059 70.1836 383.54 69.6888 383.781 68.6992ZM383.908 65.9258C383.889 65.1185 383.716 64.513 383.391 64.1094C383.065 63.6992 382.678 63.4941 382.229 63.4941C381.753 63.4941 381.353 63.7057 381.027 64.1289C380.695 64.5586 380.533 65.1576 380.539 65.9258H383.908ZM387.873 72V61.6387H390.129V65.418H393.352V61.6387H395.607V72H393.352V67.6445H390.129V72H387.873ZM397.814 72V61.6387H399.973V68.1426L403.43 61.6387H405.656V72H403.488V65.3594L399.973 72H397.814ZM419.934 64.6953L417.717 65.1836C417.554 64.0964 417.043 63.5527 416.184 63.5527C415.63 63.5527 415.184 63.7871 414.846 64.2559C414.507 64.7246 414.338 65.5156 414.338 66.6289C414.338 67.8594 414.507 68.7285 414.846 69.2363C415.184 69.7441 415.637 69.998 416.203 69.998C416.626 69.998 416.975 69.8548 417.248 69.5684C417.521 69.2754 417.717 68.7611 417.834 68.0254L420.051 68.4844C419.595 70.9844 418.283 72.2344 416.115 72.2344C414.729 72.2344 413.7 71.707 413.029 70.6523C412.359 69.5977 412.023 68.3281 412.023 66.8438C412.023 65.0664 412.401 63.7155 413.156 62.791C413.918 61.86 414.914 61.3945 416.145 61.3945C417.141 61.3945 417.951 61.6582 418.576 62.1855C419.208 62.7129 419.66 63.5495 419.934 64.6953ZM420.568 61.6289H422.971L424.992 68.9922L426.984 61.6289H429.309L426.311 71.6094L425.734 73.5527C425.48 74.2819 425.227 74.8158 424.973 75.1543C424.725 75.4928 424.406 75.7533 424.016 75.9355C423.632 76.1178 423.156 76.209 422.59 76.209C422.154 76.209 421.727 76.1536 421.311 76.043L421.115 73.8945C421.467 73.9792 421.783 74.0215 422.062 74.0215C422.492 74.0215 422.844 73.8783 423.117 73.5918C423.397 73.3053 423.625 72.7845 423.801 72.0293L420.568 61.6289ZM429.758 63.7969V61.6387H437.463V63.7969H434.738V72H432.482V63.7969H429.758ZM438.283 66.668C438.283 65.6523 438.485 64.7279 438.889 63.8945C439.292 63.0612 439.82 62.4362 440.471 62.0195C441.122 61.6029 441.854 61.3945 442.668 61.3945C444.035 61.3945 445.109 61.9316 445.891 63.0059C446.672 64.0736 447.062 65.3236 447.062 66.7559C447.062 67.8236 446.857 68.7871 446.447 69.6465C446.044 70.5059 445.51 71.1536 444.846 71.5898C444.188 72.0195 443.465 72.2344 442.678 72.2344C441.415 72.2344 440.367 71.7526 439.533 70.7891C438.7 69.8255 438.283 68.4518 438.283 66.668ZM440.588 66.8145C440.588 67.8626 440.793 68.6569 441.203 69.1973C441.613 69.7311 442.108 69.998 442.688 69.998C443.254 69.998 443.739 69.7279 444.143 69.1875C444.546 68.6471 444.748 67.8496 444.748 66.7949C444.748 65.7663 444.543 64.9818 444.133 64.4414C443.723 63.901 443.231 63.6309 442.658 63.6309C442.092 63.6309 441.604 63.901 441.193 64.4414C440.79 64.9818 440.588 65.7728 440.588 66.8145ZM448.732 72V61.6387H450.988V65.8574C451.294 65.8249 451.529 65.724 451.691 65.5547C451.854 65.3854 452.056 64.8874 452.297 64.0605C452.538 63.2272 452.801 62.6022 453.088 62.1855C453.381 61.7689 453.895 61.5605 454.631 61.5605C454.839 61.5605 455.132 61.5866 455.51 61.6387V63.416H455.266C454.908 63.416 454.634 63.4681 454.445 63.5723C454.257 63.6764 454.081 64.0215 453.918 64.6074C453.755 65.1934 453.599 65.6393 453.449 65.9453C453.299 66.2513 453.052 66.4954 452.707 66.6777C452.993 66.7819 453.28 66.987 453.566 67.293C453.859 67.599 454.208 68.2142 454.611 69.1387L455.852 72H453.449L452.307 69.002C452.079 68.3965 451.883 68.0091 451.721 67.8398C451.558 67.6641 451.314 67.5762 450.988 67.5762V72H448.732ZM457.033 72V69.2559H459.289V72H457.033ZM465.988 62.8008V57.6836H468.352V61.4824C468.352 62.2767 468.384 62.8691 468.449 63.2598C468.521 63.6439 468.713 63.9694 469.025 64.2363C469.344 64.5033 469.839 64.6367 470.51 64.6367C471.512 64.6367 472.313 64.3763 472.912 63.8555V57.6836H475.275V72H472.912V66.2383C471.981 66.7461 471.047 67 470.109 67C468.807 67 467.795 66.6354 467.072 65.9062C466.35 65.1706 465.988 64.1354 465.988 62.8008ZM482.629 68.6992L484.865 69.1582C484.566 70.1999 484.1 70.9746 483.469 71.4824C482.837 71.9837 482.069 72.2344 481.164 72.2344C479.908 72.2344 478.938 71.8145 478.254 70.9746C477.447 69.998 477.043 68.6309 477.043 66.873C477.043 65.1413 477.45 63.7546 478.264 62.7129C478.954 61.834 479.846 61.3945 480.939 61.3945C482.157 61.3945 483.111 61.8438 483.801 62.7422C484.595 63.7708 484.992 65.2878 484.992 67.293L484.982 67.6055H479.348C479.361 68.4258 479.543 69.0605 479.895 69.5098C480.253 69.959 480.682 70.1836 481.184 70.1836C481.906 70.1836 482.388 69.6888 482.629 68.6992ZM482.756 65.9258C482.736 65.1185 482.564 64.513 482.238 64.1094C481.913 63.6992 481.525 63.4941 481.076 63.4941C480.601 63.4941 480.201 63.7057 479.875 64.1289C479.543 64.5586 479.38 65.1576 479.387 65.9258H482.756ZM486.877 72V61.6387H489.68L491.779 68.8555L493.918 61.6387H496.701V72H494.758V65.1836L492.697 72H490.773L488.82 65.1836V72H486.877ZM503.596 72V61.6387H506.398L508.498 68.8555L510.637 61.6387H513.42V72H511.477V65.1836L509.416 72H507.492L505.539 65.1836V72H503.596ZM515.158 66.668C515.158 65.6523 515.36 64.7279 515.764 63.8945C516.167 63.0612 516.695 62.4362 517.346 62.0195C517.997 61.6029 518.729 61.3945 519.543 61.3945C520.91 61.3945 521.984 61.9316 522.766 63.0059C523.547 64.0736 523.938 65.3236 523.938 66.7559C523.938 67.8236 523.732 68.7871 523.322 69.6465C522.919 70.5059 522.385 71.1536 521.721 71.5898C521.063 72.0195 520.34 72.2344 519.553 72.2344C518.29 72.2344 517.242 71.7526 516.408 70.7891C515.575 69.8255 515.158 68.4518 515.158 66.668ZM517.463 66.8145C517.463 67.8626 517.668 68.6569 518.078 69.1973C518.488 69.7311 518.983 69.998 519.562 69.998C520.129 69.998 520.614 69.7279 521.018 69.1875C521.421 68.6471 521.623 67.8496 521.623 66.7949C521.623 65.7663 521.418 64.9818 521.008 64.4414C520.598 63.901 520.106 63.6309 519.533 63.6309C518.967 63.6309 518.479 63.901 518.068 64.4414C517.665 64.9818 517.463 65.7728 517.463 66.8145ZM525.627 72V61.6387H531.359V63.7969H527.883V72H525.627ZM531.467 61.6289H533.869L535.891 68.9922L537.883 61.6289H540.207L537.209 71.6094L536.633 73.5527C536.379 74.2819 536.125 74.8158 535.871 75.1543C535.624 75.4928 535.305 75.7533 534.914 75.9355C534.53 76.1178 534.055 76.209 533.488 76.209C533.052 76.209 532.626 76.1536 532.209 76.043L532.014 73.8945C532.365 73.9792 532.681 74.0215 532.961 74.0215C533.391 74.0215 533.742 73.8783 534.016 73.5918C534.296 73.3053 534.523 72.7845 534.699 72.0293L531.467 61.6289ZM546.154 72V61.6387H553.713V72H551.447V63.7969H548.41V72H546.154ZM555.607 66.668C555.607 65.6523 555.809 64.7279 556.213 63.8945C556.617 63.0612 557.144 62.4362 557.795 62.0195C558.446 61.6029 559.178 61.3945 559.992 61.3945C561.359 61.3945 562.434 61.9316 563.215 63.0059C563.996 64.0736 564.387 65.3236 564.387 66.7559C564.387 67.8236 564.182 68.7871 563.771 69.6465C563.368 70.5059 562.834 71.1536 562.17 71.5898C561.512 72.0195 560.79 72.2344 560.002 72.2344C558.739 72.2344 557.691 71.7526 556.857 70.7891C556.024 69.8255 555.607 68.4518 555.607 66.668ZM557.912 66.8145C557.912 67.8626 558.117 68.6569 558.527 69.1973C558.938 69.7311 559.432 69.998 560.012 69.998C560.578 69.998 561.063 69.7279 561.467 69.1875C561.87 68.6471 562.072 67.8496 562.072 66.7949C562.072 65.7663 561.867 64.9818 561.457 64.4414C561.047 63.901 560.555 63.6309 559.982 63.6309C559.416 63.6309 558.928 63.901 558.518 64.4414C558.114 64.9818 557.912 65.7728 557.912 66.8145ZM566.213 72V61.6387H569.016L571.115 68.8555L573.254 61.6387H576.037V72H574.094V65.1836L572.033 72H570.109L568.156 65.1836V72H566.213ZM577.775 66.668C577.775 65.6523 577.977 64.7279 578.381 63.8945C578.785 63.0612 579.312 62.4362 579.963 62.0195C580.614 61.6029 581.346 61.3945 582.16 61.3945C583.527 61.3945 584.602 61.9316 585.383 63.0059C586.164 64.0736 586.555 65.3236 586.555 66.7559C586.555 67.8236 586.35 68.7871 585.939 69.6465C585.536 70.5059 585.002 71.1536 584.338 71.5898C583.68 72.0195 582.958 72.2344 582.17 72.2344C580.907 72.2344 579.859 71.7526 579.025 70.7891C578.192 69.8255 577.775 68.4518 577.775 66.668ZM580.08 66.8145C580.08 67.8626 580.285 68.6569 580.695 69.1973C581.105 69.7311 581.6 69.998 582.18 69.998C582.746 69.998 583.231 69.7279 583.635 69.1875C584.038 68.6471 584.24 67.8496 584.24 66.7949C584.24 65.7663 584.035 64.9818 583.625 64.4414C583.215 63.901 582.723 63.6309 582.15 63.6309C581.584 63.6309 581.096 63.901 580.686 64.4414C580.282 64.9818 580.08 65.7728 580.08 66.8145ZM588.078 64.3242V61.6387H590.344V64.3047C590.344 65.6914 590.904 66.3848 592.023 66.3848C592.447 66.3848 592.893 66.2773 593.361 66.0625V61.6387H595.617V72H593.361V67.8594C592.535 68.1393 591.867 68.2793 591.359 68.2793C590.324 68.2793 589.517 67.9408 588.938 67.2637C588.365 66.5801 588.078 65.6003 588.078 64.3242ZM597.893 72V61.6387H600.148V65.9355H602.609C604.087 65.9355 605.041 66.2643 605.471 66.9219C605.9 67.5729 606.115 68.2598 606.115 68.9824C606.115 70.9941 605.041 72 602.893 72H597.893ZM600.148 67.6152V70.2617H602.434C603.339 70.2617 603.791 69.8223 603.791 68.9434C603.791 68.4876 603.651 68.1523 603.371 67.9375C603.091 67.7227 602.57 67.6152 601.809 67.6152H600.148ZM612.766 68.3086H610.725L610.715 67.6836C610.715 66.8438 610.826 66.1634 611.047 65.6426C611.268 65.1217 611.698 64.5488 612.336 63.9238C613.046 63.2207 613.472 62.7389 613.615 62.4785C613.758 62.2181 613.83 61.9154 613.83 61.5703C613.83 61.0039 613.645 60.5384 613.273 60.1738C612.909 59.8092 612.447 59.627 611.887 59.627C610.682 59.627 609.94 60.431 609.66 62.0391L607.6 61.7266C607.658 60.5026 608.078 59.5 608.859 58.7188C609.647 57.931 610.633 57.5371 611.818 57.5371C613.023 57.5371 614.025 57.931 614.826 58.7188C615.627 59.5065 616.027 60.4896 616.027 61.668C616.027 62.2669 615.887 62.8366 615.607 63.377C615.327 63.9108 614.725 64.6432 613.801 65.5742C613.326 66.056 613.029 66.4434 612.912 66.7363C612.801 67.0293 612.753 67.5534 612.766 68.3086ZM610.725 72V69.2559H612.98V72H610.725Z" fill="white"/>
<circle cx="65" cy="65" r="65" fill="#D9D9D9"/>
<circle cx="65" cy="51" r="20" fill="black"/>
<path d="M108 113C95.5 125 84.5 128.5 65.9482 130.5C46.4482 128.5 36.5 130.5 25 115C25 95.9462 44.5284 78 64.9629 78C85.3974 78 108 93.9462 108 113Z" fill="black"/>
</svg>
